<svg version="1.1" id="Layer_1" xmlns:x="ns_extend;" xmlns:i="ns_ai;" xmlns:graph="ns_graphs;" xmlns="http://www.w3.org/2000/svg" xmlns:xlink="http://www.w3.org/1999/xlink" x="0px" y="0px" viewBox="0 0 40.1 40" style="enable-background:new 0 0 40.1 40;" xml:space="preserve">
 <style type="text/css">
  .st0{fill:#2962EF;}
	.st1{fill:#FFFFFF;}
 </style>
 <metadata>
  <sfw xmlns="ns_sfw;">
   <slices>
   </slices>
   <sliceSourceBounds bottomLeftOrigin="true" height="40" width="40.1" x="0" y="69.2">
   </sliceSourceBounds>
  </sfw>
 </metadata>
 <g>
  <g>
   <path class="st0" d="M39.4,3.7c-0.6-1.3-1.7-2.3-2.9-2.9C35.1,0,33.2,0,29.4,0H10.7C7,0,5.1,0,3.7,0.7C2.4,1.4,1.4,2.4,0.7,3.7
			C0,5.1,0,7,0,10.7v18.6c0,3.7,0,5.6,0.7,7.1c0.6,1.3,1.7,2.3,2.9,2.9C5.1,40,7,40,10.7,40h18.7c3.7,0,5.6,0,7.1-0.7
			c1.3-0.6,2.3-1.7,2.9-2.9c0.7-1.4,0.7-3.3,0.7-7.1V10.7C40.1,7,40.1,5.1,39.4,3.7z M8.7,10h20.8c0.7,0,1.2,0.8,0.8,1.4l-6.4,8.3
			c-0.2,0.3-0.7,0.4-1.1,0.2L8.3,11.2C7.8,10.8,8,10,8.7,10z M31.4,30H10.7c-0.7,0-1.2-0.8-0.8-1.4l6.4-8.3c0.2-0.3,0.7-0.4,1.1-0.2
			l14.4,8.7C32.4,29.1,32.1,30,31.4,30z">
   </path>
   <path class="st1" d="M23.9,19.7l6.4-8.3c0.4-0.6,0-1.4-0.8-1.4H8.7c-0.7,0-1,0.8-0.4,1.2l14.4,8.7C23.1,20.1,23.6,20,23.9,19.7z">
   </path>
   <path class="st1" d="M31.8,28.8l-14.4-8.7c-0.4-0.2-0.8-0.1-1.1,0.2l-6.4,8.3c-0.4,0.6,0,1.4,0.8,1.4h20.7
			C32.1,30,32.4,29.1,31.8,28.8z">
   </path>
  </g>
 </g>
</svg>